
<!-- Generator: Adobe Illustrator 19.0.0, SVG Export Plug-In . SVG Version: 6.00 Build 0)  -->
<svg version="1.1" id="Layer_2" xmlns="http://www.w3.org/2000/svg" xmlns:xlink="http://www.w3.org/1999/xlink" x="0px" y="0px"
	 viewBox="0 0 512 512" style="enable-background:new 0 0 512 512;" xml:space="preserve">
<g>
	<g>
		<g>
			<path d="M153.856,264.533c0-4.71-3.814-8.533-8.533-8.533h-0.085c-4.71,0-8.491,3.823-8.491,8.533
				c0,4.71,3.866,8.533,8.576,8.533C150.042,273.067,153.856,269.244,153.856,264.533z"/>
			<path d="M221.867,452.267v-34.133c0-4.71-3.823-8.533-8.533-8.533c-4.71,0-8.533,3.823-8.533,8.533v34.133
				c0,4.71,3.823,8.533,8.533,8.533C218.044,460.8,221.867,456.977,221.867,452.267z"/>
			<path d="M469.333,0H42.667C20.736,0,0,20.736,0,42.667v221.867c0,4.71,3.823,8.533,8.533,8.533s8.533-3.823,8.533-8.533V42.667
				c0-12.442,13.158-25.6,25.6-25.6h426.667c12.442,0,25.6,13.158,25.6,25.6v307.2c0,12.442-13.158,25.6-25.6,25.6H42.667
				c-12.442,0-25.6-13.158-25.6-25.6V307.2h452.267c4.71,0,8.533-3.823,8.533-8.533s-3.823-8.533-8.533-8.533H8.533
				c-4.71,0-8.533,3.823-8.533,8.533v51.2c0,21.931,20.736,42.667,42.667,42.667h426.667c21.931,0,42.667-20.736,42.667-42.667
				v-307.2C512,20.736,491.264,0,469.333,0z"/>
			<path d="M349.867,494.933h-8.533V486.4c0-4.71-3.823-8.533-8.533-8.533c-4.71,0-8.533,3.823-8.533,8.533v8.533H307.2V486.4
				c0-4.71-3.823-8.533-8.533-8.533s-8.533,3.823-8.533,8.533v8.533h-17.067V486.4c0-4.71-3.823-8.533-8.533-8.533
				c-4.71,0-8.533,3.823-8.533,8.533v8.533h-17.067V486.4c0-4.71-3.823-8.533-8.533-8.533s-8.533,3.823-8.533,8.533v8.533H204.8
				V486.4c0-4.71-3.823-8.533-8.533-8.533s-8.533,3.823-8.533,8.533v8.533h-17.067V486.4c0-4.71-3.823-8.533-8.533-8.533
				c-4.71,0-8.533,3.823-8.533,8.533v8.533h-17.067V486.4c0-4.71-3.823-8.533-8.533-8.533s-8.533,3.823-8.533,8.533v8.533H102.4
				V486.4c0-4.71-3.823-8.533-8.533-8.533c-4.71,0-8.533,3.823-8.533,8.533v8.533H68.267V486.4c0-4.71-3.823-8.533-8.533-8.533
				S51.2,481.69,51.2,486.4v8.533h-8.533c-4.71,0-8.533,3.823-8.533,8.533S37.956,512,42.667,512h307.2
				c4.71,0,8.533-3.823,8.533-8.533S354.577,494.933,349.867,494.933z"/>
			<path d="M298.667,460.8c4.71,0,8.533-3.823,8.533-8.533v-34.133c0-4.71-3.823-8.533-8.533-8.533s-8.533,3.823-8.533,8.533v34.133
				C290.133,456.977,293.956,460.8,298.667,460.8z"/>
			<path d="M443.733,460.8h-17.067c-18.825,0-34.133,15.309-34.133,34.133v8.533c0,4.71,3.823,8.533,8.533,8.533h68.267
				c4.71,0,8.533-3.823,8.533-8.533v-8.533C477.867,476.109,462.558,460.8,443.733,460.8z M409.6,494.933
				c0-9.412,7.654-17.067,17.067-17.067h17.067c9.412,0,17.067,7.654,17.067,17.067H409.6z"/>
			<path d="M375.723,264.533c0-4.71-3.814-8.533-8.533-8.533h-0.085c-4.71,0-8.491,3.823-8.491,8.533
				c0,4.71,3.866,8.533,8.576,8.533C371.908,273.067,375.723,269.244,375.723,264.533z"/>
			<path d="M341.589,264.533c0-4.71-3.814-8.533-8.533-8.533h-0.085c-4.71,0-8.491,3.823-8.491,8.533
				c0,4.71,3.866,8.533,8.576,8.533C337.775,273.067,341.589,269.244,341.589,264.533z"/>
			<path d="M238.933,341.333c0,9.412,7.654,17.067,17.067,17.067c9.412,0,17.067-7.654,17.067-17.067
				c0-9.412-7.654-17.067-17.067-17.067C246.588,324.267,238.933,331.921,238.933,341.333z"/>
			<path d="M256.256,264.533c0-4.71-3.814-8.533-8.533-8.533h-0.085c-4.71,0-8.491,3.823-8.491,8.533
				c0,4.71,3.866,8.533,8.576,8.533C252.442,273.067,256.256,269.244,256.256,264.533z"/>
			<path d="M222.123,264.533c0-4.71-3.814-8.533-8.533-8.533h-0.085c-4.71,0-8.491,3.823-8.491,8.533
				c0,4.71,3.866,8.533,8.576,8.533C218.308,273.067,222.123,269.244,222.123,264.533z"/>
			<path d="M187.989,264.533c0-4.71-3.814-8.533-8.533-8.533h-0.085c-4.71,0-8.491,3.823-8.491,8.533
				c0,4.71,3.866,8.533,8.576,8.533C184.175,273.067,187.989,269.244,187.989,264.533z"/>
			<path d="M290.389,264.533c0-4.71-3.814-8.533-8.533-8.533h-0.085c-4.71,0-8.491,3.823-8.491,8.533
				c0,4.71,3.866,8.533,8.576,8.533C286.575,273.067,290.389,269.244,290.389,264.533z"/>
		</g>
	</g>
</g>
<g>
</g>
<g>
</g>
<g>
</g>
<g>
</g>
<g>
</g>
<g>
</g>
<g>
</g>
<g>
</g>
<g>
</g>
<g>
</g>
<g>
</g>
<g>
</g>
<g>
</g>
<g>
</g>
<g>
</g>
</svg>
