<?xml version="1.0" encoding="iso-8859-1"?>
<!-- Generator: Adobe Illustrator 19.0.0, SVG Export Plug-In . SVG Version: 6.00 Build 0)  -->
<svg version="1.1" id="Layer_1" xmlns="http://www.w3.org/2000/svg" xmlns:xlink="http://www.w3.org/1999/xlink" x="0px" y="0px"
	 viewBox="0 0 512 512" style="enable-background:new 0 0 512 512;" xml:space="preserve">
<g>
	<g>
		<g>
			<path d="M298.669,153.6c2.185,0,4.369-0.836,6.033-2.5c3.337-3.337,3.337-8.73,0-12.066l-17.067-17.067
				c-3.336-3.336-8.73-3.336-12.066,0c-3.336,3.337-3.336,8.73,0,12.066l17.067,17.067C294.3,152.764,296.484,153.6,298.669,153.6z"
				/>
			<path d="M298.669,460.8c-4.719,0-8.533,3.823-8.533,8.533s3.814,8.533,8.533,8.533h8.533c4.719,0,8.533-3.823,8.533-8.533
				s-3.814-8.533-8.533-8.533H298.669z"/>
			<path d="M162.135,460.8c-4.719,0-8.533,3.823-8.533,8.533s3.814,8.533,8.533,8.533h85.333c4.719,0,8.533-3.823,8.533-8.533
				s-3.814-8.533-8.533-8.533H162.135z"/>
			<path d="M224.369,121.967c-3.337,3.337-3.337,8.73,0,12.066l68.267,68.267c1.664,1.664,3.849,2.5,6.033,2.5
				c2.185,0,4.369-0.836,6.033-2.5c3.337-3.337,3.337-8.73,0-12.066l-68.267-68.267C233.099,118.63,227.705,118.63,224.369,121.967z
				"/>
			<path d="M349.869,102.4c-4.719,0-8.533,3.823-8.533,8.533v358.4c0,12.442-13.158,25.6-25.6,25.6H93.869
				c-12.442,0-25.6-13.158-25.6-25.6v-25.6h247.467c4.719,0,8.533-3.823,8.533-8.533s-3.814-8.533-8.533-8.533h-256
				c-4.719,0-8.533,3.823-8.533,8.533v34.133c0,21.931,20.736,42.667,42.667,42.667h221.867c21.931,0,42.667-20.736,42.667-42.667
				v-358.4C358.402,106.223,354.588,102.4,349.869,102.4z"/>
			<path d="M307.458,42.667c0-4.71-3.823-8.533-8.533-8.533h-0.094c-4.702,0-8.482,3.823-8.482,8.533
				c0,4.71,3.866,8.533,8.576,8.533S307.458,47.377,307.458,42.667z"/>
			<path d="M230.402,51.2c4.719,0,8.533-3.823,8.533-8.533c0-4.71-3.814-8.533-8.533-8.533h-51.2c-4.719,0-8.533,3.823-8.533,8.533
				c0,4.71,3.814,8.533,8.533,8.533H230.402z"/>
			<path d="M460.665,489.796L425.312,201.83c-0.137-1.075-0.469-2.116-0.99-3.072l-21.35-38.835l-1.886-15.309
				c-0.572-4.676-4.847-8.021-9.506-7.424c-4.676,0.572-8.004,4.83-7.424,9.506l1.877,15.309l-11.324,42.846
				c-0.273,1.05-0.35,2.142-0.213,3.217l35.354,287.966c1.05,8.55,8.329,14.993,16.939,14.993c0.691,0,1.382-0.043,2.091-0.128
				l16.93-2.082c4.523-0.555,8.567-2.842,11.375-6.434C459.983,498.79,461.229,494.319,460.665,489.796z M426.797,493.961h-0.009
				l-35.157-286.336l5.871-22.221l11.076,20.139l35.149,286.336L426.797,493.961z"/>
			<path d="M102.402,460.8c-4.719,0-8.533,3.823-8.533,8.533s3.814,8.533,8.533,8.533h8.533c4.719,0,8.533-3.823,8.533-8.533
				s-3.814-8.533-8.533-8.533H102.402z"/>
			<path d="M317.8,8.789C316.367,8.431,281.764,0,204.802,0C127.831,0,93.237,8.431,91.735,8.806
				C71.563,14.003,51.202,29.133,51.202,51.2v349.867c0,4.71,3.814,8.533,8.533,8.533s8.533-3.823,8.533-8.533V51.2
				c0-12.288,13.952-22.315,27.656-25.847c0.333-0.085,34.398-8.286,108.877-8.286s108.544,8.201,109.184,8.354
				c13.44,2.816,27.349,13.227,27.349,25.779v17.067H93.869c-4.719,0-8.533,3.823-8.533,8.533s3.814,8.533,8.533,8.533h256
				c4.719,0,8.533-3.823,8.533-8.533V51.2C358.402,29.167,337.316,12.868,317.8,8.789z"/>
		</g>
	</g>
</g>
<g>
</g>
<g>
</g>
<g>
</g>
<g>
</g>
<g>
</g>
<g>
</g>
<g>
</g>
<g>
</g>
<g>
</g>
<g>
</g>
<g>
</g>
<g>
</g>
<g>
</g>
<g>
</g>
<g>
</g>
</svg>
