<?xml version="1.0" encoding="iso-8859-1"?>
<!-- Generator: Adobe Illustrator 19.0.0, SVG Export Plug-In . SVG Version: 6.00 Build 0)  -->
<svg version="1.1" id="Layer_1" xmlns="http://www.w3.org/2000/svg" xmlns:xlink="http://www.w3.org/1999/xlink" x="0px" y="0px"
	 viewBox="0 0 512 512" style="enable-background:new 0 0 512 512;" xml:space="preserve">
<g>
	<g>
		<g>
			<path d="M239.189,264.533h-0.094c-4.702,0-8.482,3.823-8.482,8.533s3.866,8.533,8.576,8.533s8.533-3.823,8.533-8.533
				S243.9,264.533,239.189,264.533z"/>
			<path d="M264.533,375.467h-51.2c-4.719,0-8.533,3.823-8.533,8.533s3.814,8.533,8.533,8.533h51.2c4.719,0,8.533-3.823,8.533-8.533
				S269.252,375.467,264.533,375.467z"/>
			<path d="M143.667,68.147c4.651,0.768,9.045-2.364,9.813-7.006l7.347-44.075h26.906v42.667c0,4.71,3.814,8.533,8.533,8.533
				s8.533-3.823,8.533-8.533V17.067h68.267v42.667c0,4.71,3.814,8.533,8.533,8.533c4.719,0,8.533-3.823,8.533-8.533V17.067h26.906
				l7.347,44.075c0.691,4.164,4.309,7.125,8.405,7.125c0.469,0,0.93-0.034,1.408-0.119c4.651-0.777,7.791-5.171,7.014-9.822
				l-8.533-51.2C331.998,3.012,328.439,0,324.267,0H153.6c-4.173,0-7.731,3.012-8.414,7.125l-8.533,51.2
				C135.876,62.976,139.017,67.371,143.667,68.147z"/>
			<path d="M196.267,221.867c-4.719,0-8.533,3.823-8.533,8.533v51.2c0,4.71,3.814,8.533,8.533,8.533s8.533-3.823,8.533-8.533v-51.2
				C204.8,225.69,200.986,221.867,196.267,221.867z"/>
			<path d="M334.199,443.853c-4.642-0.802-9.054,2.364-9.813,7.006l-7.347,44.075h-26.906v-42.667c0-4.71-3.814-8.533-8.533-8.533
				c-4.719,0-8.533,3.823-8.533,8.533v42.667H204.8v-42.667c0-4.71-3.814-8.533-8.533-8.533s-8.533,3.823-8.533,8.533v42.667
				h-26.906l-7.347-44.075c-0.768-4.642-5.154-7.799-9.813-7.006c-4.651,0.768-7.791,5.171-7.014,9.822l8.533,51.2
				c0.683,4.113,4.241,7.125,8.414,7.125h170.667c4.173,0,7.731-3.012,8.414-7.125l8.533-51.2
				C341.99,449.024,338.85,444.621,334.199,443.853z"/>
			<path d="M162.133,221.867c-4.719,0-8.533,3.823-8.533,8.533v51.2c0,4.71,3.814,8.533,8.533,8.533
				c4.719,0,8.533-3.823,8.533-8.533v-51.2C170.667,225.69,166.852,221.867,162.133,221.867z"/>
			<path d="M315.733,221.867c-4.719,0-8.533,3.823-8.533,8.533v51.2c0,4.71,3.814,8.533,8.533,8.533s8.533-3.823,8.533-8.533v-51.2
				C324.267,225.69,320.452,221.867,315.733,221.867z"/>
			<path d="M355.9,104.9c-19.567-19.567-31.155-19.567-48.7-19.567H170.667c-17.545,0-29.133,0-48.7,19.567l-34.133,34.133
				c-19.567,19.567-19.567,31.155-19.567,48.7v136.533c0,17.545,0,29.133,19.567,48.7l34.133,34.133
				c19.567,19.567,31.155,19.567,48.7,19.567H307.2c17.545,0,29.133,0,48.7-19.567l34.133-34.133
				c19.567-19.567,19.567-31.155,19.567-48.7V187.733c0-17.545,0-29.133-19.567-48.7L355.9,104.9z M392.533,324.267
				c0,16.503,0,22.067-14.566,36.634l-34.133,34.133C329.267,409.6,323.712,409.6,307.2,409.6H170.667
				c-16.512,0-22.067,0-36.634-14.566L99.9,360.9c-14.566-14.566-14.566-20.13-14.566-36.634V187.733
				c0-16.503,0-22.067,14.566-36.634l34.133-34.133c14.566-14.566,20.122-14.566,36.634-14.566H307.2
				c16.512,0,22.067,0,36.634,14.566l34.133,34.133c14.566,14.566,14.566,20.13,14.566,36.634V324.267z"/>
			<path d="M435.2,273.067c-4.719,0-8.533,3.823-8.533,8.533v17.067c0,4.71,3.814,8.533,8.533,8.533s8.533-3.823,8.533-8.533V281.6
				C443.733,276.89,439.919,273.067,435.2,273.067z"/>
			<path d="M239.189,230.4h-0.094c-4.702,0-8.482,3.823-8.482,8.533s3.866,8.533,8.576,8.533s8.533-3.823,8.533-8.533
				S243.9,230.4,239.189,230.4z"/>
			<path d="M435.2,204.8c-4.719,0-8.533,3.823-8.533,8.533v34.133c0,4.71,3.814,8.533,8.533,8.533s8.533-3.823,8.533-8.533v-34.133
				C443.733,208.623,439.919,204.8,435.2,204.8z"/>
			<path d="M281.6,221.867c-4.719,0-8.533,3.823-8.533,8.533v51.2c0,4.71,3.814,8.533,8.533,8.533c4.719,0,8.533-3.823,8.533-8.533
				v-51.2C290.133,225.69,286.319,221.867,281.6,221.867z"/>
			<path d="M332.8,153.6H145.067c-23.526,0-42.667,19.14-42.667,42.667v119.467c0,23.526,19.14,42.667,42.667,42.667H332.8
				c23.526,0,42.667-19.14,42.667-42.667V196.267C375.467,172.74,356.326,153.6,332.8,153.6z M358.4,315.733
				c0,14.114-11.486,25.6-25.6,25.6H145.067c-14.114,0-25.6-11.486-25.6-25.6V196.267c0-14.114,11.486-25.6,25.6-25.6H332.8
				c14.114,0,25.6,11.486,25.6,25.6V315.733z"/>
		</g>
	</g>
</g>
<g>
</g>
<g>
</g>
<g>
</g>
<g>
</g>
<g>
</g>
<g>
</g>
<g>
</g>
<g>
</g>
<g>
</g>
<g>
</g>
<g>
</g>
<g>
</g>
<g>
</g>
<g>
</g>
<g>
</g>
</svg>
